<?xml version="1.0" encoding="utf-8"?>
<!-- Powered by Developer :)  -->
<!DOCTYPE svg PUBLIC "-//W3C//DTD SVG 1.1//EN" "http://www.w3.org/Graphics/SVG/1.1/DTD/svg11.dtd">


<svg version="1.1" xmlns="http://www.w3.org/2000/svg" xmlns:xlink="http://www.w3.org/1999/xlink">
	 
<!-- insta -->

<symbol id="insta">
<path d="M16 22H6a6 6 0 0 1-6-6V6a6 6 0 0 1 6-6h10a6 6 0 0 1 6 6v10a6 6 0 0 1-6 6zM6 2a4 4 0 0 0-4 4v10a4 4 0 0 0 4 4h10a4 4 0 0 0 4-4V6a4 4 0 0 0-4-4zm5.03 13.96a5 5 0 1 1 .02-10 5 5 0 0 1-.02 10zm.01-8c-.14 0-.29 0-.44.03a3 3 0 1 0 .44-.03zM16.5 6.5c-.26 0-.52-.11-.71-.3a1.05 1.05 0 0 1-.29-.7c0-.26.11-.52.29-.71a1.05 1.05 0 0 1 1.42 0c.18.19.29.45.29.7 0 .27-.11.53-.29.72-.19.18-.45.29-.71.29z"/>
</symbol>

<!-- twitter -->

<symbol id="twitter">
<path d="M8.96 19.88c-2.62 0-5.3-.68-7.81-2.03a.96.96 0 0 1-.48-1.12.99.99 0 0 1 1.01-.72c1.71.07 3.38-.26 4.91-.94-7.67-4.58-3.9-13.09-3.86-13.18a1 1 0 0 1 .83-.58 1 1 0 0 1 .92.42 9.79 9.79 0 0 0 7.24 4 5.32 5.32 0 0 1 1.9-4.1 5.65 5.65 0 0 1 7.31.06c.82-.3 1.6-.7 2.31-1.18.35-.24.81-.24 1.15-.01.35.23.51.64.42 1.04a8.47 8.47 0 0 1-2.02 3.7l.03.48c0 5.37-2.45 9.85-6.72 12.3a14.34 14.34 0 0 1-7.14 1.86zM5.63 17.5c3.28.82 6.63.43 9.45-1.18 3.63-2.08 5.72-5.94 5.72-10.6 0-.21-.02-.42-.06-.63a.95.95 0 0 1 .28-.88c.22-.22.43-.45.62-.69l-.69.23c-.38.11-.79 0-1.05-.3a3.58 3.58 0 0 0-4.95-.33 3.38 3.38 0 0 0-1.21 2.62v.99a1 1 0 0 1-.98.98 11.91 11.91 0 0 1-8.71-3.42c-.6 2.5-.84 7.3 5.06 9.85a.96.96 0 0 1 .15 1.7c-1.13.75-2.35 1.3-3.63 1.66z"/>
</symbol>

<!-- facebook -->

<symbol id="facebook">
<path d="M8.96 22H4.97a1 1 0 0 1-.99-1v-7h-2a1 1 0 0 1-.99-1V9a1 1 0 0 1 .99-1h2V6a6 6 0 0 1 5.98-6h2.99a1 1 0 0 1 1 1v4a1 1 0 0 1-1 1H9.96v2h2.99a1 1 0 0 1 .79.38c.18.25.25.56.18.86l-1 4a1 1 0 0 1-.97.76H9.96v7a1 1 0 0 1-1 1zm-2.99-2h1.99v-7a1 1 0 0 1 1-1h2.21l.5-2H8.96a1 1 0 0 1-1-1V6c0-1.1.9-2 2-2h1.99V2H9.96a4 4 0 0 0-3.99 4v3a1 1 0 0 1-1 1H2.98v2h1.99a1 1 0 0 1 1 1z"/>
</symbol>

<!-- people -->

<symbol id="people">
<path d="M16.5 19a.5.5 0 0 1-.5-.5v-2a3.5 3.5 0 0 0-3.5-3.5h-8A3.5 3.5 0 0 0 1 16.5v2a.5.5 0 0 1-1 0v-2A4.5 4.5 0 0 1 4.5 12h8a4.5 4.5 0 0 1 4.5 4.5v2a.5.5 0 0 1-.5.5zm-8-10a4.5 4.5 0 1 1 0-9 4.5 4.5 0 0 1 0 9zm0-8a3.5 3.5 0 1 0 0 7 3.5 3.5 0 0 0 0-7z"/>
</symbol>

<!-- orders -->


<symbol id="orders">
<path d="M18.5 1.03h-13a.5.5 0 1 1 0-1h13a.5.5 0 1 1 0 1zm0 5.98h-13a.5.5 0 1 1 0-1h13a.5.5 0 1 1 0 1zm0 5.99h-13a.5.5 0 1 1 0-1h13a.5.5 0 1 1 0 1zM.5 1.03A.47.47 0 0 1 .15.88.47.47 0 0 1 0 .53.4.4 0 0 1 .04.34.35.35 0 0 1 .15.18a.5.5 0 0 1 .54-.1c.06.01.12.05.16.1.05.04.09.1.11.16a.4.4 0 0 1 .04.2C1 .58.99.65.96.71a.35.35 0 0 1-.11.16.35.35 0 0 1-.16.11.4.4 0 0 1-.19.04zm0 5.98a.43.43 0 0 1-.19-.04.36.36 0 0 1-.16-.1.34.34 0 0 1-.11-.16.4.4 0 0 1-.04-.2c0-.12.05-.25.15-.34.04-.05.1-.1.16-.11a.5.5 0 0 1 .38 0c.06.02.12.06.16.1.1.1.15.23.15.36 0 .13-.05.25-.15.34a.35.35 0 0 1-.16.11.4.4 0 0 1-.19.04zM.5 13a.4.4 0 0 1-.19-.04.35.35 0 0 1-.16-.11.35.35 0 0 1-.11-.16.4.4 0 0 1-.04-.19c0-.13.05-.26.15-.35.04-.05.1-.09.16-.1a.49.49 0 0 1 .54.1c.05.04.09.1.11.16.03.06.04.13.04.19a.4.4 0 0 1-.04.19.35.35 0 0 1-.11.16.46.46 0 0 1-.35.15z"/>
</symbol>

<!-- messages -->

<symbol id="messages">
<path d="M.5 19a.5.5 0 0 1-.5-.5v-16A2.5 2.5 0 0 1 2.5 0h14A2.5 2.5 0 0 1 19 2.5v10a2.5 2.5 0 0 1-2.5 2.5H4.7L.86 18.85A.5.5 0 0 1 .5 19zm2-18C1.67 1 1 1.67 1 2.5v14.8l3.15-3.15A.5.5 0 0 1 4.5 14h12c.83 0 1.5-.67 1.5-1.5v-10c0-.83-.67-1.5-1.5-1.5z"/>
</symbol>

<!-- list -->

<symbol id="list">
<path d="M14.5 19.97a.5.5 0 0 1-.3-.1L7.5 15.1.8 19.88a.5.5 0 0 1-.53.04.5.5 0 0 1-.27-.45V3.5A2.5 2.5 0 0 1 2.5 1h10A2.5 2.5 0 0 1 15 3.5v15.98a.5.5 0 0 1-.5.5zm-7-5.99c.1 0 .2.03.29.1L14 18.5v-15c0-.83-.67-1.5-1.5-1.5h-10C1.67 2 1 2.67 1 3.5v15l6.2-4.43a.5.5 0 0 1 .3-.09z"/>
</symbol>

<!-- kart -->

<symbol id="kart">
<path d="M18.48 11H7.49a.5.5 0 0 1-.46-.31L3.16 1H1.5a.5.5 0 0 1 0-1h2c.2 0 .38.12.46.31L7.83 10H18.1l1.71-6H6.5a.5.5 0 0 1 0-1h13.99a.5.5 0 0 1 .48.64l-2 7a.5.5 0 0 1-.48.36zm-9.99 7a2.5 2.5 0 1 1 0-5 2.5 2.5 0 0 1 0 5zm0-4a1.5 1.5 0 1 0 0 3 1.5 1.5 0 0 0 0-3zm8.99 4a2.5 2.5 0 1 1 0-5 2.5 2.5 0 0 1 0 5zm0-4a1.5 1.5 0 1 0 0 3 1.5 1.5 0 0 0 0-3z"/>
</symbol>

<!-- exit -->

<symbol id="exit">
<path d="M8.48 21h-5A2.5 2.5 0 0 1 1 18.5v-16A2.5 2.5 0 0 1 3.5 0h4.99a.5.5 0 1 1 0 1h-5C2.67 1 2 1.67 2 2.5v16c0 .83.67 1.5 1.5 1.5h4.99a.5.5 0 1 1 0 1zm6.98-6a.5.5 0 0 1-.35-.85L18.24 11H7.48a.5.5 0 0 1 0-1h10.77L15.1 6.85a.5.5 0 0 1 .7-.7l4 4a.5.5 0 0 1-.02.72l-3.98 3.98a.5.5 0 0 1-.35.15z"/>
</symbol>

 <!-- close -->
    
<symbol id="close">
            <g>
                <g>
                <path d="M9.831,7.494l4.673-4.673c0.646-0.646,0.646-1.691,0-2.337
                    c-0.646-0.645-1.691-0.645-2.337,0L7.494,5.157L2.82,0.483c-0.646-0.645-1.691-0.645-2.337,0c-0.645,0.646-0.645,1.691,0,2.337
                    l4.673,4.673l-4.673,4.673c-0.645,0.646-0.645,1.691,0,2.337c0.646,0.646,1.691,0.646,2.337,0l4.673-4.673l4.673,4.673
                    c0.646,0.646,1.691,0.646,2.337,0s0.646-1.691,0-2.337L9.831,7.494z"/>
                </g>
            </g>
</symbol>

 <!-- order__succsess -->

 <symbol id="order__succsess">
 <path fill="#9b6bcc" d="M8.82 17.25h-.01a8.24 8.24 0 1 1 3.35-15.79c.38.17.55.62.38 1a.75.75 0 0 1-.99.37 6.68 6.68 0 0 0-7.49 1.39 6.74 6.74 0 0 0 4.75 11.53h.01c3.7 0 6.72-3.03 6.72-6.75v-.7a.75.75 0 1 1 1.49 0V9a8.24 8.24 0 0 1-8.21 8.25zm0-6a.75.75 0 0 1-.53-.22L6.05 8.78a.74.74 0 0 1 0-1.06c.29-.29.76-.29 1.05 0l1.72 1.72 7.68-7.72a.75.75 0 1 1 1.06 1.06l-8.22 8.25a.74.74 0 0 1-.52.22z"/>
</symbol>

 <!-- order__delay -->

 <symbol id="order__delay">
		<path fill="#e14189" d="M9 17.25A8.26 8.26 0 1 1 9.02.73 8.26 8.26 0 0 1 9 17.25zm0-15a6.76 6.76 0 0 0 0 13.5 6.76 6.76 0 0 0 0-13.5zM6.75 12a.75.75 0 0 1-.53-.22.75.75 0 0 1 0-1.06L7.94 9 6.22 7.28a.75.75 0 1 1 1.06-1.06L9 7.94l1.72-1.72a.75.75 0 1 1 1.06 1.06L10.06 9l1.72 1.72c.29.3.29.77 0 1.06a.75.75 0 0 1-1.06 0L9 10.06l-1.72 1.72a.75.75 0 0 1-.53.22z"/>
 </symbol> 
 
  <!-- order__wait -->

 <symbol id="order__wait">
		<path fill="#999" d="M8.36 17.25A8.26 8.26 0 1 1 8.38.73a8.26 8.26 0 0 1-.02 16.52zm0-15a6.76 6.76 0 1 0 .02 13.52 6.76 6.76 0 0 0-.02-13.52zM10.61 12a.75.75 0 0 1-.53-.22L7.83 9.53A.75.75 0 0 1 7.61 9V4.5c0-.41.34-.75.75-.75.42 0 .75.34.75.75v4.19l2.03 2.03c.3.3.3.77 0 1.06a.72.72 0 0 1-.53.22z"/>
 </symbol> 
 
</svg>
