<svg enable-background="new 0 0 200 90" viewBox="0 0 200 90" xmlns="http://www.w3.org/2000/svg"><g fill="#9b6bcc"><path d="m111 57.3c0 8.8 10.1 9.6 17.5 2.3 1.3-1.3 2.4-2.8 3.4-4.4.9-1.5.7-1.2 1.3-2.6.6-1.2.6-1.7.9-2.5l.2-.4c0 9.5-3.5 17.1-9.3 24-.4.4-.5.6-.9 1-1.2 1.2-2.8 2.7-4.2 3.6-.8.6-1.5 1-2.4 1.6-5.6 3.4-11.5 4.3-18.1 3.2-1.5-.3-2.6-.9-4.3-.9-.3 1.3 1.3 2.3 2.3 2.9 3.7 2.2 7.4 2.3 11.2 2.7h.2.7c.6 0 1-.1 1.7-.1 4 0 9.5-2.1 12.4-4.3 5.8-4.3 8.5-10.8 10.2-17.7 1.4-5.7 2.7-14.1 2.7-20.2 0-2-1.7-3.2-2.2-1-.6 2.5-1.9 6.4-3 8.5-1.2 2.3-2.1 3.3-3.7 4.8-4.7 4.5-10.7 1.6-10.7-5 0-4.2.7-6.3 2.7-9.4 1.8-2.8 6.3-.6 6.3-4.9 0-.4-.4-.6-.7-.6-2.9 0-7.7 4.9-9.5 7.3-2.3 3-4.7 8-4.7 12.1z"/><path d="m18.1 64.2c-2.1 0-1.9-2.9-1.9-4.3 0-3.6 3.6-9.7 6.2-12.3.6-.6.7-1 1.8-1.9 1-.9 3.4-2.9 4.6-2.9 1.6 0 1.6.3 1.6 2.5 0 2.8-2.7 9-4.1 11.4-1.3 2.1-3.4 4.8-5.4 6.3-.6.4-1.9 1.2-2.8 1.2zm-8.5-7.9c0 3.6 0 6.9 1.5 10.1 3.2 6.9 9.3 3.2 13-.5l2.4-2.7c3.5-4.2 6.8-10.5 6.8-16v-1.8c0-2.4-1.4-5.3-3.7-5.3-3.5 0-5.9 1.6-8.5 3.6-.5.4-1 .7-1.5 1.2l-1.6 1.3c-.3.2-.4.4-.7.7s-.5.4-.8.7c-.5.5-.9 1-1.4 1.4 0-1.8 1.4-8.9 1.7-10.7 1.1-5 3.8-13.7 7.5-17.4.9-.9 2.2-2.2 3.2-3 .6-.4 1.1-1 1.4-1.7.6-1.2.3-1.7-.1-2.3-1.6.4-2.5 1.8-3.2 2.5-2 2-6.1 8.7-7.6 11.6-.2.4-.4.8-.6 1.3-.5.9-.9 1.7-1.3 2.6s-.8 1.8-1.2 2.7c-1.9 4.7-3.6 9.6-4.5 14.7-.4 2.1-.8 4.6-.8 7z"/><path d="m70.6 81.5c7.4 0 10-3 6.7-4.1-1.3-.4-5.5-.4-8.9-2.4-1.6-.9-1.9-1.1-3.3-2.3l-1.5-1.5c-7.5-8.4-6.1-22.1-4-32.2 1.6-8 5.8-18.8 10.4-25.8 1.1-1.7 2.9-1.9 4.8-3.2 2.6-1.7 1.9-3.8.9-3.8-2.7 0-8.6 9.2-9.9 11.4-.9 1.5-1.7 3.1-2.6 4.7-.5.8-.7 1.6-1.1 2.4-.9 1.8-2.6 5.7-3.2 7.6-1.5 4.4-2.2 6.3-3.2 11.1-2 8.6-3.9 22.2 1 30.5 1 1.7 1.9 2.6 3.3 3.9 1.1 1 2.9 2 4.4 2.6 1.6.6 4 1.1 6.2 1.1z"/><path d="m82.4 53.2c0-2.4 2.3-8.7 3.7-11 1.2-2 2.4-4.5 4.7-6 2.4-1.6 3.9.5 3.9 3.2 0 2-.7 4-1.5 5.5-.4.6-.8 1.3-1.2 1.9l-1.4 1.8c-1.1 1.1-2.1 2.1-3.4 2.9-1.2.7-3.1 1.6-4.8 1.7zm1.6 11.8c3.7 0 5.4-.2 8.5-2.1 5.9-3.6 4.1-6.3 3-6.3-.8 0-2.3 2.9-3.2 4.1-2.3 2.9-6.4 3.7-8.7.6-1.4-1.8-1.4-3.7-1.4-5.8 2.6-.1 9.7-3.5 11.6-4.8 1.6-1 3.3-2.4 4.4-3.8.6-.8 1.2-1.6 1.6-2.5 1.3-2.9 1.4-6.5-.6-9.1-2.4-3.1-7.7-1.6-10.5-.3-3 1.5-5.5 3.8-7.4 6.5-3 4.5-5.4 10.2-4.2 16.2.9 3.4 3 7.3 6.9 7.3z"/><path d="m68.1 52.3c0 5.2.7 9.8 3.7 13.9 2.1 2.9 6.4 6.1 10.2 6.1 1.8 0 3.2.2 4-1.3-.4-.7-.4-.7-1.2-1-6.6-2.6-9.6-7.5-11.1-14.4-3-13.9 2.3-29.1 10.7-39.3.7-.8.9-1 2-1.3 1.8-.5 3.2-2.1 2.7-4.4-.2 0-.4-.1-.4-.1-2.3 0-6.3 5.9-7.6 7.9-3.3 5-4.5 7.1-7.1 12.3-3.1 5.7-5.9 14.9-5.9 21.6z"/><path d="m160.1 65.3c4.4 0 7-1.7 10.1-4l5.2-4.6c.5-.5 1-1.4 1.7-1.6.1 1.8 2.4 4.4 4.4 5.4 3.3 1.6 6.8.4 9.6-1.7.6-.5 1.1-1.1 1.2-1.5v-.5c-.2-.1-.8.1-1.9 1.2s-8.2 2.5-8.6-6.3c-.1-1.2-.1-3.1-1.6-3.1-.4 0-.9.1-1.2.3l-.3.5c-1.4 2.9-1.6 3.4-4.1 5.8-1.5 1.6-5.3 4-8.2 4-2.4 0-3.9-.2-5.3-2.4-2.6-3.9-1.6-12.3 4.5-14.3 1.7-.6 2.5-1 2.5-2.9 0-2.8-4.2.9-4.4 1-.5.4-1 .8-1.4 1.4-3.8 4.6-8.5 10.8-7.7 17.3.3 3 2.3 6 5.5 6z"/><path d="m39.9 52.1.7-3.7c.6-2.2 1.4-4.7 2.6-6.5 3.8-5.6 4.6 1 1.4 6.4-.7 1.2-1 1.5-1.9 2.4-.7.6-1.7 1.3-2.8 1.4zm-5.2 1.4c0 8.8 8.4 10.9 13.8 5.4 1.1-1.1 1-1.3.6-1.9-1.7.4-1.6 2.8-6.1 2.8-2 0-3.1-2.2-3.2-3.7l-.2-1.6c0-.1 0-.5.5-.8.3-.1 2.1-.5 4.2-1.6 3.7-1.9 9.2-5.3 9.2-10.3 0-1.6.1-2.7-1.1-4-2.4-2.6-7.2-.6-9.5.9-1.5 1-2.8 2.3-4 3.7-1.7 2.3-4.2 7.1-4.2 11.1z"/><path d="m144.3 53.5c-3.7 0-2.6-4.5-1.2-6.8 4.1-6.8 10.5-8.1 10.5-5 0 2.9-1.6 5.6-3.2 7.7-1.2 1.4-3.7 4.1-6.1 4.1zm-3 5.6c3.2 0 5.5-1.8 7.7-3.6 3.8-3.1 9.7-11.5 6-15.4-2.8-2.9-7.4-.3-9.6 1.6-1.6 1.4-2.2 2-3.5 3.6-1.6 2-3.4 5.1-3.9 7.9-.2 1.5-.2 2.8.3 4 .5 1.1 1.6 1.9 3 1.9z"/><path d="m104.5 39c0 8.6 5.7 6.7 2.9 3.7-1-1-1-.6-1-2.2 0-2.7 3.2-7.5 4.7-9.6.8-1.1 3.1-2.9 3.1-5.6 0-2.1-1.3-3.3-2.4-4.3-1.8 1.2-4 5.7-4.9 7.8-1 2.5-2.4 6.7-2.4 10.2z"/></g></svg>